# Blender 3.5.1
# www.blender.org
mtllib TSAT_coarse_mesh.mtl
o TSAT_coarse_mesh
v 300.000000 0.000940 600.000000
v 299.998993 50.001644 599.999023
v 299.997986 49.999699 0.002687
v 299.997986 -0.003553 0.005614
v -299.997009 49.999744 599.997986
v -299.997009 49.994099 0.002948
v -299.997986 -0.003508 600.002014
v -299.998993 -0.002173 0.001059
v -100.000000 0.000360 600.000000
v -99.997398 -0.002858 0.000451
v -100.000000 -299.998962 599.999023
v -99.997902 -300.002991 0.001043
v 99.999298 -299.994965 599.995972
v 100.000999 -300.002014 0.001078
v 100.001999 0.000560 599.997986
v 100.001999 -0.003223 0.000951
v 300.000000 0.000940 599.999023
v 100.001999 0.000560 599.997986
v 299.997986 -0.003553 0.005414
v 100.001999 -0.003223 0.000751
v 99.999298 -299.994965 599.995972
v 100.000999 -300.002014 0.000878
v -100.000000 -299.998962 599.999023
v -99.997902 -300.002991 0.000843
v -100.000000 0.000360 600.000000
v -99.997398 -0.002858 0.000251
v -299.997986 -0.003508 600.002014
v -299.998993 -0.002173 0.000859
v -299.997009 49.999744 599.997009
v -299.997009 49.994099 0.002748
v 299.998993 50.001644 599.999023
v 299.997986 49.999699 0.002487
vn 1.0000 -0.0000 -0.0000
vn -0.0000 1.0000 -0.0000
vn -1.0000 -0.0000 -0.0000
vn -0.0000 -1.0000 -0.0000
vn -0.0000 -0.0000 -1.0000
vn -0.0000 0.0001 1.0000
vn -0.0000 -0.0000 1.0000
vn -0.0000 -0.0001 -1.0000
vn -0.0000 0.0001 -1.0000
s 0
f 1//1 3//1 2//1
f 3//1 1//1 4//1
f 2//2 6//2 5//2
f 6//2 2//2 3//2
f 5//3 8//3 7//3
f 8//3 5//3 6//3
f 7//4 10//4 9//4
f 10//4 7//4 8//4
f 9//3 12//3 11//3
f 12//3 9//3 10//3
f 11//4 14//4 13//4
f 14//4 11//4 12//4
f 13//1 16//1 15//1
f 16//1 13//1 14//1
f 15//4 4//4 1//4
f 4//4 15//4 16//4
f 10//5 14//5 12//5
f 5//6 7//6 9//6
f 10//5 16//5 14//5
f 5//6 9//6 15//6
f 5//7 15//7 2//7
f 2//7 15//7 1//7
f 9//7 13//7 15//7
f 9//7 11//7 13//7
f 3//8 4//8 16//8
f 6//5 10//5 8//5
f 6//5 3//5 16//5
f 6//9 16//9 10//9
l 20 22
l 17 18
l 18 19
l 19 20
l 20 21
l 21 22
l 23 21
l 22 23
l 25 18
l 25 21
l 26 27
l 26 28
l 22 24
l 28 30
l 30 31
l 32 31
l 23 24
l 26 22
l 29 18
l 25 23
l 30 20
l 32 19
l 24 25
l 32 20
l 24 26
l 25 26
l 27 25
l 25 29
l 27 28
l 31 17
l 26 30
l 29 27
l 28 29
l 29 30
l 26 20
l 31 29
l 30 32
l 17 32
l 31 18
l 19 17
l 18 20
l 21 18
