solid Created by Gmsh
facet normal 1 0 0
  outer loop
    vertex 20 0 -2.5
    vertex 20 -120 -2.5
    vertex 20 0 -40
  endloop
endfacet
facet normal 1 0 0
  outer loop
    vertex 20 0 -40
    vertex 20 -120 -2.5
    vertex 20 -120 -40
  endloop
endfacet
facet normal 0 0 -1
  outer loop
    vertex 20 0 -2.5
    vertex 60 -120 -2.5
    vertex 20 -120 -2.5
  endloop
endfacet
facet normal -0 -0 -1
  outer loop
    vertex 60 0 -2.5
    vertex 60 -120 -2.5
    vertex 20 0 -2.5
  endloop
endfacet
facet normal 1 0 0
  outer loop
    vertex 60 0 -2.5
    vertex 60 -120 2.5
    vertex 60 -120 -2.5
  endloop
endfacet
facet normal 1 0 0
  outer loop
    vertex 60 0 2.5
    vertex 60 -120 2.5
    vertex 60 0 -2.5
  endloop
endfacet
facet normal 0 -0 1
  outer loop
    vertex 60 -120 2.5
    vertex 60 0 2.5
    vertex 0 -60 2.5
  endloop
endfacet
facet normal 0 0 1
  outer loop
    vertex 60 0 2.5
    vertex -60 0 2.5
    vertex 0 -60 2.5
  endloop
endfacet
facet normal 0 0 1
  outer loop
    vertex -60 -120 2.5
    vertex 60 -120 2.5
    vertex 0 -60 2.5
  endloop
endfacet
facet normal 0 0 1
  outer loop
    vertex -60 0 2.5
    vertex -60 -120 2.5
    vertex 0 -60 2.5
  endloop
endfacet
facet normal -1 -0 0
  outer loop
    vertex -60 0 2.5
    vertex -60 -120 -2.5
    vertex -60 -120 2.5
  endloop
endfacet
facet normal -1 0 0
  outer loop
    vertex -60 0 -2.5
    vertex -60 -120 -2.5
    vertex -60 0 2.5
  endloop
endfacet
facet normal 0 0 -1
  outer loop
    vertex -60 0 -2.5
    vertex -20 -120 -2.5
    vertex -60 -120 -2.5
  endloop
endfacet
facet normal -0 -0 -1
  outer loop
    vertex -20 0 -2.5
    vertex -20 -120 -2.5
    vertex -60 0 -2.5
  endloop
endfacet
facet normal -1 -0 0
  outer loop
    vertex -20 0 -2.5
    vertex -20 -120 -40
    vertex -20 -120 -2.5
  endloop
endfacet
facet normal -1 0 0
  outer loop
    vertex -20 0 -40
    vertex -20 -120 -40
    vertex -20 0 -2.5
  endloop
endfacet
facet normal 0 0 -1
  outer loop
    vertex 20 -120 -40
    vertex -20 0 -40
    vertex 20 0 -40
  endloop
endfacet
facet normal 0 0 -1
  outer loop
    vertex -20 0 -40
    vertex 20 -120 -40
    vertex -20 -120 -40
  endloop
endfacet
facet normal 0 -1 0
  outer loop
    vertex 60 -120 -2.5
    vertex 60 -120 2.5
    vertex 20 -120 -2.5
  endloop
endfacet
facet normal 0 -1 0
  outer loop
    vertex -60 -120 -2.5
    vertex -20 -120 -2.5
    vertex -60 -120 2.5
  endloop
endfacet
facet normal -0 -1 0
  outer loop
    vertex 20 -120 -2.5
    vertex -20 -120 -2.5
    vertex 0 -120 -21.25
  endloop
endfacet
facet normal 0 -1 0
  outer loop
    vertex -20 -120 -40
    vertex 20 -120 -40
    vertex 0 -120 -21.25
  endloop
endfacet
facet normal 0 -1 0
  outer loop
    vertex 20 -120 -40
    vertex 20 -120 -2.5
    vertex 0 -120 -21.25
  endloop
endfacet
facet normal 0 -1 0
  outer loop
    vertex -20 -120 -2.5
    vertex -20 -120 -40
    vertex 0 -120 -21.25
  endloop
endfacet
facet normal 0 -1 0
  outer loop
    vertex -20 -120 -2.5
    vertex 20 -120 -2.5
    vertex 60 -120 2.5
  endloop
endfacet
facet normal 0 -1 0
  outer loop
    vertex -60 -120 2.5
    vertex -20 -120 -2.5
    vertex 60 -120 2.5
  endloop
endfacet
facet normal 0 1 -0
  outer loop
    vertex 60 0 -2.5
    vertex 20 0 -2.5
    vertex 60 0 2.5
  endloop
endfacet
facet normal 0 1 0
  outer loop
    vertex -60 0 2.5
    vertex -20 0 -2.5
    vertex -60 0 -2.5
  endloop
endfacet
facet normal 0 1 0
  outer loop
    vertex -20 0 -40
    vertex 0 0 -21.25
    vertex 20 0 -40
  endloop
endfacet
facet normal 0 1 0
  outer loop
    vertex 20 0 -2.5
    vertex 0 0 -21.25
    vertex -20 0 -2.5
  endloop
endfacet
facet normal 0 1 -0
  outer loop
    vertex 20 0 -40
    vertex 0 0 -21.25
    vertex 20 0 -2.5
  endloop
endfacet
facet normal 0 1 0
  outer loop
    vertex -20 0 -2.5
    vertex 0 0 -21.25
    vertex -20 0 -40
  endloop
endfacet
facet normal 0 1 0
  outer loop
    vertex -20 0 -2.5
    vertex 60 0 2.5
    vertex 20 0 -2.5
  endloop
endfacet
facet normal -0 1 0
  outer loop
    vertex -60 0 2.5
    vertex 60 0 2.5
    vertex -20 0 -2.5
  endloop
endfacet
endsolid Created by Gmsh
