solid Created by Gmsh
facet normal 1 0 0
  outer loop
    vertex 0.787401556968689 0 -0.09842519462108612
    vertex 0.787401556968689 -4.724409580230713 -0.09842519462108612
    vertex 0.787401556968689 -4.724409580230713 -1.574803113937378
  endloop
endfacet
facet normal 1 0 0
  outer loop
    vertex 0.787401556968689 -4.724409580230713 -1.574803113937378
    vertex 0.787401556968689 0 -1.574803113937378
    vertex 0.787401556968689 0 -0.09842519462108612
  endloop
endfacet
facet normal 0 -0 -1
  outer loop
    vertex 2.362204790115356 0 -0.09842519462108612
    vertex 2.362204790115356 -4.724409580230713 -0.09842519462108612
    vertex 0.787401556968689 -4.724409580230713 -0.09842519462108612
  endloop
endfacet
facet normal 0 0 -1
  outer loop
    vertex 0.787401556968689 -4.724409580230713 -0.09842519462108612
    vertex 0.787401556968689 0 -0.09842519462108612
    vertex 2.362204790115356 0 -0.09842519462108612
  endloop
endfacet
facet normal 1 0 0
  outer loop
    vertex 2.362204790115356 0 0.09842519462108612
    vertex 2.362204790115356 -4.724409580230713 0.09842519462108612
    vertex 2.362204790115356 -4.724409580230713 -0.09842519462108612
  endloop
endfacet
facet normal 1 0 0
  outer loop
    vertex 2.362204790115356 -4.724409580230713 -0.09842519462108612
    vertex 2.362204790115356 0 -0.09842519462108612
    vertex 2.362204790115356 0 0.09842519462108612
  endloop
endfacet
facet normal 0 0 1
  outer loop
    vertex -2.362204790115356 0 0.09842519462108612
    vertex -2.362204790115356 -4.724409580230713 0.09842519462108612
    vertex 2.362204790115356 -4.724409580230713 0.09842519462108612
  endloop
endfacet
facet normal 0 -0 1
  outer loop
    vertex 2.362204790115356 -4.724409580230713 0.09842519462108612
    vertex 2.362204790115356 0 0.09842519462108612
    vertex -2.362204790115356 0 0.09842519462108612
  endloop
endfacet
facet normal -1 0 0
  outer loop
    vertex -2.362204790115356 0 -0.09842519462108612
    vertex -2.362204790115356 -4.724409580230713 -0.09842519462108612
    vertex -2.362204790115356 -4.724409580230713 0.09842519462108612
  endloop
endfacet
facet normal -1 0 0
  outer loop
    vertex -2.362204790115356 -4.724409580230713 0.09842519462108612
    vertex -2.362204790115356 0 0.09842519462108612
    vertex -2.362204790115356 0 -0.09842519462108612
  endloop
endfacet
facet normal 0 -1 0
  outer loop
    vertex 0.787401556968689 -4.724409580230713 -0.09842519462108612
    vertex 2.362204790115356 -4.724409580230713 -0.09842519462108612
    vertex 2.362204790115356 -4.724409580230713 0.09842519462108612
  endloop
endfacet
facet normal 0 -1 0
  outer loop
    vertex -2.362204790115356 -4.724409580230713 0.09842519462108612
    vertex -2.362204790115356 -4.724409580230713 -0.09842519462108612
    vertex -0.787401556968689 -4.724409580230713 -0.09842519462108612
  endloop
endfacet
facet normal 0 -1 0
  outer loop
    vertex -0.787401556968689 -4.724409580230713 -0.09842519462108612
    vertex -0.787401556968689 -4.724409580230713 -1.574803113937378
    vertex 0.787401556968689 -4.724409580230713 -1.574803113937378
  endloop
endfacet
facet normal 0 -1 0
  outer loop
    vertex 0.787401556968689 -4.724409580230713 -1.574803113937378
    vertex 0.787401556968689 -4.724409580230713 -0.09842519462108612
    vertex -0.787401556968689 -4.724409580230713 -0.09842519462108612
  endloop
endfacet
facet normal 0 -1 0
  outer loop
    vertex -0.787401556968689 -4.724409580230713 -0.09842519462108612
    vertex 0.787401556968689 -4.724409580230713 -0.09842519462108612
    vertex -2.362204790115356 -4.724409580230713 0.09842519462108612
  endloop
endfacet
facet normal -0 -1 0
  outer loop
    vertex 2.362204790115356 -4.724409580230713 0.09842519462108612
    vertex -2.362204790115356 -4.724409580230713 0.09842519462108612
    vertex 0.787401556968689 -4.724409580230713 -0.09842519462108612
  endloop
endfacet
facet normal 0 1 0
  outer loop
    vertex -0.787401556968689 0 -0.09842519462108612
    vertex -2.362204790115356 0 -0.09842519462108612
    vertex -2.362204790115356 0 0.09842519462108612
  endloop
endfacet
facet normal 0 1 0
  outer loop
    vertex 2.362204790115356 0 0.09842519462108612
    vertex 2.362204790115356 0 -0.09842519462108612
    vertex 0.787401556968689 0 -0.09842519462108612
  endloop
endfacet
facet normal 0 1 0
  outer loop
    vertex 0.787401556968689 0 -0.09842519462108612
    vertex 0.787401556968689 0 -1.574803113937378
    vertex -0.787401556968689 0 -1.574803113937378
  endloop
endfacet
facet normal 0 1 0
  outer loop
    vertex -0.787401556968689 0 -1.574803113937378
    vertex -0.787401556968689 0 -0.09842519462108612
    vertex 0.787401556968689 0 -0.09842519462108612
  endloop
endfacet
facet normal 0 1 -0
  outer loop
    vertex 0.787401556968689 0 -0.09842519462108612
    vertex -0.787401556968689 0 -0.09842519462108612
    vertex 2.362204790115356 0 0.09842519462108612
  endloop
endfacet
facet normal -0 1 0
  outer loop
    vertex -2.362204790115356 0 0.09842519462108612
    vertex 2.362204790115356 0 0.09842519462108612
    vertex -0.787401556968689 0 -0.09842519462108612
  endloop
endfacet
facet normal 0 -0 -1
  outer loop
    vertex -0.787401556968689 0 -0.09842519462108612
    vertex -0.787401556968689 -4.724409580230713 -0.09842519462108612
    vertex -2.362204790115356 -4.724409580230713 -0.09842519462108612
  endloop
endfacet
facet normal 0 0 -1
  outer loop
    vertex -2.362204790115356 -4.724409580230713 -0.09842519462108612
    vertex -2.362204790115356 0 -0.09842519462108612
    vertex -0.787401556968689 0 -0.09842519462108612
  endloop
endfacet
facet normal -1 0 0
  outer loop
    vertex -0.787401556968689 0 -1.574803113937378
    vertex -0.787401556968689 -4.724409580230713 -1.574803113937378
    vertex -0.787401556968689 -4.724409580230713 -0.09842519462108612
  endloop
endfacet
facet normal -1 0 0
  outer loop
    vertex -0.787401556968689 -4.724409580230713 -0.09842519462108612
    vertex -0.787401556968689 0 -0.09842519462108612
    vertex -0.787401556968689 0 -1.574803113937378
  endloop
endfacet
facet normal 0 -0 -1
  outer loop
    vertex 0.787401556968689 0 -1.574803113937378
    vertex 0.787401556968689 -4.724409580230713 -1.574803113937378
    vertex -0.787401556968689 -4.724409580230713 -1.574803113937378
  endloop
endfacet
facet normal 0 0 -1
  outer loop
    vertex -0.787401556968689 -4.724409580230713 -1.574803113937378
    vertex -0.787401556968689 0 -1.574803113937378
    vertex 0.787401556968689 0 -1.574803113937378
  endloop
endfacet
endsolid Created by Gmsh
